# xmcd
#
# Track frame offsets: 
#        150
#        27087
#        47432
#        65680
#        93952
#        119357
#        148422
#        167268
#        186261
#        212936
#        238723
#        266571
#        287306
#
# Disc length: 4144 seconds
#
# Revision: 0
# Processed by: cddbd v1.5.2PL0 Copyright (c) Steve Scherf et al.
# Submitted via: ExactAudioCopy v0.99pb3
#
DISCID=b9102e0d
DTITLE=Walter Trout - The Outsider
DYEAR=2008
DGENRE=Blues
TTITLE0=01. Welcome To The Human Race
TTITLE1=02. The Next Best Thing
TTITLE2=03. All My Life
TTITLE3=04. The Love Song Of J. Alfred Bluesrock
TTITLE4=05. Dont Wanna Fall
TTITLE5=06. Child Of Another Day
TTITLE6=07. Turn Your Eyes To Heaven
TTITLE7=08. The Restless Age
TTITLE8=09. Gone Too Long
TTITLE9=10. A Matter Of The Heart
TTITLE10=11. Cant Have It All
TTITLE11=12. Sanjay
TTITLE12=13. The Outsider
EXTD=
EXTT0=
EXTT1=
EXTT2=
EXTT3=
EXTT4=
EXTT5=
EXTT6=
EXTT7=
EXTT8=
EXTT9=
EXTT10=
EXTT11=
EXTT12=
PLAYORDER=
